<svg width="100" height="100" viewBox="0 0 100 100" fill="none" xmlns="http://www.w3.org/2000/svg">
<rect width="100" height="100" fill="url(#paint0_radial_0_1)"/>
<path d="M50 29.5181C56.6265 29.5181 57.5301 29.5181 60.241 29.5181C62.6506 29.5181 63.8554 30.1205 64.759 30.4217C65.9639 31.0241 66.8675 31.3253 67.7711 32.2289C68.6747 33.1325 69.2771 34.0361 69.5783 35.241C69.8795 36.1446 70.1807 37.3494 70.4819 39.759C70.4819 42.4699 70.4819 43.0723 70.4819 50C70.4819 56.9277 70.4819 57.5301 70.4819 60.241C70.4819 62.6506 69.8795 63.8554 69.5783 64.759C68.9759 65.9639 68.6747 66.8675 67.7711 67.7711C66.8675 68.6747 65.9639 69.2771 64.759 69.5783C63.8554 69.8795 62.6506 70.1807 60.241 70.4819C57.5301 70.4819 56.9277 70.4819 50 70.4819C43.0723 70.4819 42.4699 70.4819 39.759 70.4819C37.3494 70.4819 36.1446 69.8795 35.241 69.5783C34.0361 68.9759 33.1325 68.6747 32.2289 67.7711C31.3253 66.8675 30.7229 65.9639 30.4217 64.759C30.1205 63.8554 29.8193 62.6506 29.5181 60.241C29.5181 57.5301 29.5181 56.9277 29.5181 50C29.5181 43.0723 29.5181 42.4699 29.5181 39.759C29.5181 37.3494 30.1205 36.1446 30.4217 35.241C31.0241 34.0361 31.3253 33.1325 32.2289 32.2289C33.1325 31.3253 34.0361 30.7229 35.241 30.4217C36.1446 30.1205 37.3494 29.8193 39.759 29.5181C42.4699 29.5181 43.3735 29.5181 50 29.5181ZM50 25C43.0723 25 42.4699 25 39.759 25C37.0482 25 35.241 25.6024 33.7349 26.2048C32.2289 26.8072 30.7229 27.7108 29.2169 29.2169C27.7108 30.7229 27.1084 31.9277 26.2048 33.7349C25.6024 35.241 25.3012 37.0482 25 39.759C25 42.4699 25 43.3735 25 50C25 56.9277 25 57.5301 25 60.241C25 62.9518 25.6024 64.759 26.2048 66.2651C26.8072 67.7711 27.7108 69.2771 29.2169 70.7831C30.7229 72.2892 31.9277 72.8916 33.7349 73.7952C35.241 74.3976 37.0482 74.6988 39.759 75C42.4699 75 43.3735 75 50 75C56.6265 75 57.5301 75 60.241 75C62.9518 75 64.759 74.3976 66.2651 73.7952C67.7711 73.1928 69.2771 72.2892 70.7831 70.7831C72.2892 69.2771 72.8916 68.0723 73.7952 66.2651C74.3976 64.759 74.6988 62.9518 75 60.241C75 57.5301 75 56.6265 75 50C75 43.3735 75 42.4699 75 39.759C75 37.0482 74.3976 35.241 73.7952 33.7349C73.1928 32.2289 72.2892 30.7229 70.7831 29.2169C69.2771 27.7108 68.0723 27.1084 66.2651 26.2048C64.759 25.6024 62.9518 25.3012 60.241 25C57.5301 25 56.9277 25 50 25Z" fill="white"/>
<path d="M50 37.0482C42.7711 37.0482 37.0482 42.7711 37.0482 50C37.0482 57.2289 42.7711 62.9518 50 62.9518C57.2289 62.9518 62.9518 57.2289 62.9518 50C62.9518 42.7711 57.2289 37.0482 50 37.0482ZM50 58.4337C45.4819 58.4337 41.5663 54.8193 41.5663 50C41.5663 45.4819 45.1807 41.5663 50 41.5663C54.5181 41.5663 58.4337 45.1807 58.4337 50C58.4337 54.5181 54.5181 58.4337 50 58.4337Z" fill="white"/>
<path d="M63.253 39.759C64.9165 39.759 66.2651 38.4105 66.2651 36.747C66.2651 35.0835 64.9165 33.7349 63.253 33.7349C61.5895 33.7349 60.241 35.0835 60.241 36.747C60.241 38.4105 61.5895 39.759 63.253 39.759Z" fill="white"/>
<defs>
<radialGradient id="paint0_radial_0_1" cx="0" cy="0" r="1" gradientUnits="userSpaceOnUse" gradientTransform="translate(102.012 2.03125) scale(230.93)">
<stop stop-color="#F9ED32"/>
<stop offset="0.36" stop-color="#EE2A7B"/>
<stop offset="0.44" stop-color="#D22A8A"/>
<stop offset="0.6" stop-color="#8B2AB2"/>
<stop offset="0.83" stop-color="#1B2AF0"/>
<stop offset="0.88" stop-color="#002AFF"/>
</radialGradient>
</defs>
</svg>
