<svg width="100" height="100" viewBox="0 0 100 100" fill="none" xmlns="http://www.w3.org/2000/svg">
<rect width="100" height="100" fill="#111111"/>
<path d="M74.9215 38.1899C73.1967 38.19 71.4888 37.8503 69.8954 37.1902C68.3019 36.5302 66.854 35.5628 65.6344 34.3432C64.4148 33.1236 63.4474 31.6757 62.7873 30.0823C62.1273 28.4888 61.7876 26.7809 61.7876 25.0562H52.4042V61.7997C52.4024 63.4749 51.8734 65.107 50.8922 66.4648C49.911 67.8226 48.5273 68.8371 46.9373 69.3646C45.3473 69.892 43.6316 69.9057 42.0334 69.4036C40.4352 68.9015 39.0356 67.9092 38.0329 66.5672C37.0302 65.2252 36.4753 63.6017 36.4468 61.9267C36.4183 60.2517 36.9178 58.6103 37.8743 57.235C38.8308 55.8597 40.196 54.8204 41.7762 54.2643C43.3564 53.7082 45.0716 53.6636 46.6786 54.1367V45.0154C43.2634 44.5549 39.789 45.1473 36.7193 46.7134C33.6496 48.2795 31.1307 50.7448 29.4991 53.7802C27.8674 56.8155 27.2006 60.2764 27.5876 63.7007C27.9747 67.125 29.3972 70.3497 31.6652 72.9443C33.9333 75.5388 36.9389 77.3797 40.2807 78.2211C43.6225 79.0625 47.1414 78.8643 50.3677 77.6531C53.5939 76.4419 56.3739 74.2753 58.3363 71.4425C60.2987 68.6098 61.3503 65.2458 61.3505 61.7997L61.6227 43.2268C65.4781 46.0571 70.1377 47.58 74.9204 47.5729L74.9215 38.1899Z" fill="url(#paint0_linear_1120_2821)"/>
<path d="M72.4405 35.6339C68.9573 35.6339 65.6167 34.2501 63.1537 31.787C60.6907 29.3239 59.3071 25.9833 59.3071 22.5H49.9238V59.2435C49.922 60.9187 49.3931 62.5509 48.4119 63.9087C47.4307 65.2665 46.047 66.281 44.457 66.8085C42.867 67.336 41.1513 67.3497 39.5531 66.8476C37.9549 66.3456 36.5552 65.3532 35.5525 64.0113C34.5498 62.6693 33.9948 61.0458 33.9664 59.3708C33.9379 57.6958 34.4373 56.0543 35.3938 54.6791C36.3504 53.3038 37.7155 52.2644 39.2957 51.7083C40.8759 51.1522 42.5911 51.1076 44.1981 51.5807V42.4593C40.7829 41.9988 37.3085 42.5911 34.2388 44.1572C31.1691 45.7233 28.6503 48.1886 27.0186 51.224C25.3869 54.2593 24.7201 57.7202 25.1072 61.1445C25.4942 64.5688 26.9168 67.7935 29.1848 70.3881C31.4528 72.9826 34.4584 74.8235 37.8002 75.6649C41.142 76.5063 44.661 76.3081 47.8872 75.0969C51.1135 73.8857 53.8934 71.7191 55.8559 68.8863C57.8183 66.0536 58.8699 62.6896 58.8701 59.2435L59.1438 40.6708C62.9992 43.501 67.6587 45.0239 72.4414 45.0167L72.4405 35.6339Z" fill="url(#paint1_linear_1120_2821)"/>
<path d="M72.4404 37.9551C69.1938 37.3304 66.3022 35.5043 64.3429 32.8412C61.8665 30.9032 60.1679 28.1407 59.556 25.0562H52.4041V61.7997C52.404 63.5435 51.8332 65.2394 50.779 66.6285C49.7247 68.0176 48.2449 69.0235 46.5654 69.4928C44.8858 69.9621 43.0989 69.8689 41.4773 69.2275C39.8557 68.5861 38.4885 67.4317 37.5844 65.9405C35.9768 64.894 34.7993 63.304 34.2671 61.4611C33.735 59.6181 33.8837 57.6452 34.6862 55.9028C35.4886 54.1605 36.8912 52.765 38.6377 51.9714C40.3841 51.1779 42.3577 51.0392 44.198 51.5807V44.8684C41.0415 44.9091 37.9593 45.8312 35.2991 47.5308C32.6389 49.2303 30.5068 51.6396 29.1434 54.4867C27.7799 57.3338 27.2395 60.5053 27.583 63.6433C27.9265 66.7813 29.1403 69.7608 31.0874 72.2455C33.5594 74.3081 36.5681 75.6233 39.7608 76.0369C42.9536 76.4505 46.1981 75.9454 49.114 74.5808C52.0299 73.2162 54.4964 71.0486 56.2243 68.3321C57.9522 65.6156 58.87 62.4629 58.8699 59.2435L59.1436 40.6708C62.999 43.501 67.6586 45.0239 72.4413 45.0167L72.4404 37.9551Z" fill="url(#paint2_linear_1120_2821)"/>
<defs>
<linearGradient id="paint0_linear_1120_2821" x1="31.2411" y1="72.5718" x2="70.2721" y2="33.5406" gradientUnits="userSpaceOnUse">
<stop stop-color="#B5053C"/>
<stop offset="0.233" stop-color="#C90441"/>
<stop offset="0.737" stop-color="#F0014B"/>
<stop offset="1" stop-color="#FF004F"/>
</linearGradient>
<linearGradient id="paint1_linear_1120_2821" x1="28.1791" y1="70.5966" x2="69.2934" y2="29.4825" gradientUnits="userSpaceOnUse">
<stop stop-color="#00B2C9"/>
<stop offset="0.283" stop-color="#00C8D4"/>
<stop offset="0.741" stop-color="#00E6E4"/>
<stop offset="1" stop-color="#00F1EA"/>
</linearGradient>
<linearGradient id="paint2_linear_1120_2821" x1="5.14478" y1="96.1492" x2="96.1514" y2="5.14263" gradientUnits="userSpaceOnUse">
<stop stop-color="#DDE3E4"/>
<stop offset="1" stop-color="#FCF7F7"/>
</linearGradient>
</defs>
</svg>
