<svg width="33" height="33" viewBox="0 0 33 33" fill="none" xmlns="http://www.w3.org/2000/svg">
<path d="M23.9256 0H3.57422V33H29.425V5.49931L23.9256 0Z" fill="#E4E4E4"/>
<path d="M24.7767 2.74971H3.57422V0H23.9256L24.7767 2.74971Z" fill="#007934"/>
<path d="M12.5018 24.8147C12.1772 24.8147 11.9237 24.9478 11.7418 25.2137C11.56 25.4797 11.469 25.8465 11.469 26.314C11.469 27.2858 11.8386 27.7717 12.5779 27.7717C12.8012 27.7717 13.0177 27.7407 13.2273 27.6785C13.4368 27.6164 13.6475 27.5415 13.8595 27.454V28.6079C13.438 28.7943 12.9613 28.8876 12.4293 28.8876C11.6669 28.8876 11.0826 28.6665 10.6761 28.2243C10.2697 27.7822 10.0664 27.143 10.0664 26.307C10.0664 25.7842 10.1648 25.3249 10.3618 24.9287C10.5587 24.5325 10.8419 24.228 11.2117 24.015C11.5813 23.802 12.016 23.6953 12.5156 23.6953C13.0616 23.6953 13.5831 23.814 14.0805 24.0512L13.6625 25.1256C13.476 25.038 13.2894 24.9644 13.1029 24.9046C12.9164 24.8447 12.7161 24.8147 12.5018 24.8147Z" fill="#A4A9AD"/>
<path d="M18.1468 27.2846C18.1468 27.5979 18.0674 27.876 17.9083 28.1189C17.7495 28.3619 17.5203 28.5507 17.221 28.6855C16.9215 28.8201 16.5704 28.8875 16.1673 28.8875C15.831 28.8875 15.5489 28.8638 15.321 28.8167C15.093 28.7695 14.8558 28.6871 14.6094 28.5696V27.3536C14.8696 27.4872 15.1402 27.5916 15.4211 27.6662C15.7022 27.7412 15.96 27.7786 16.1949 27.7786C16.3976 27.7786 16.5461 27.7435 16.6406 27.6731C16.735 27.6029 16.7823 27.5124 16.7823 27.402C16.7823 27.3329 16.7633 27.2724 16.7253 27.2206C16.6873 27.1687 16.6262 27.1164 16.5422 27.0635C16.4582 27.0106 16.2342 26.9024 15.8703 26.7388C15.541 26.5891 15.2939 26.444 15.1292 26.3035C14.9645 26.163 14.8425 26.0019 14.7631 25.8199C14.6836 25.6379 14.6439 25.4227 14.6439 25.1738C14.6439 24.7088 14.8131 24.3461 15.1517 24.0857C15.4901 23.8255 15.9554 23.6953 16.5473 23.6953C17.0701 23.6953 17.6031 23.8162 18.1467 24.0581L17.7286 25.1118C17.2566 24.8953 16.8489 24.787 16.5059 24.787C16.3284 24.787 16.1996 24.8181 16.1189 24.8803C16.0383 24.9424 15.998 25.0196 15.998 25.1118C15.998 25.2108 16.0493 25.2996 16.1517 25.3777C16.2541 25.4561 16.5322 25.5988 16.986 25.8061C17.4212 26.0019 17.7235 26.212 17.8927 26.4365C18.0622 26.6611 18.1468 26.9439 18.1468 27.2846Z" fill="#A4A9AD"/>
<path d="M21.7629 23.7681H23.2897L21.6351 28.8185H20.0286L18.3809 23.7681H19.9147L20.6021 26.328C20.7449 26.8969 20.8232 27.2928 20.837 27.5163C20.8531 27.3551 20.8852 27.1535 20.9338 26.9117C20.982 26.6698 21.0247 26.4799 21.0616 26.3418L21.7629 23.7681Z" fill="#A4A9AD"/>
<path d="M23.9258 5.49931H29.4251L23.9258 0V5.49931Z" fill="#D1D3D3"/>
<path d="M18.3111 8.74487H14.6895V10.423H18.3111V8.74487Z" fill="#007934"/>
<path d="M22.7348 8.74487H19.1133V10.423H22.7348V8.74487Z" fill="#007934"/>
<path d="M18.3111 11.1738H14.6895V12.8521H18.3111V11.1738Z" fill="#007934"/>
<path d="M22.7348 11.1738H19.1133V12.8521H22.7348V11.1738Z" fill="#007934"/>
<path d="M18.3111 13.603H14.6895V15.2812H18.3111V13.603Z" fill="#007934"/>
<path d="M22.7348 13.603H19.1133V15.2812H22.7348V13.603Z" fill="#007934"/>
<path d="M13.8872 13.603H10.2656V15.2812H13.8872V13.603Z" fill="#007934"/>
<path d="M18.3111 16.0325H14.6895V17.7106H18.3111V16.0325Z" fill="#007934"/>
<path d="M22.7348 16.0325H19.1133V17.7106H22.7348V16.0325Z" fill="#007934"/>
<path d="M13.8872 16.0325H10.2656V17.7106H13.8872V16.0325Z" fill="#007934"/>
<path d="M13.8322 12.6435H12.7394L12.0578 11.5506L11.3834 12.6435H10.3145L11.4743 10.8546L10.3838 9.14722H11.4313L12.0626 10.2282L12.67 9.14722H13.7486L12.6413 10.9289L13.8322 12.6435Z" fill="#007934"/>
</svg>
