<svg width="32" height="32" viewBox="0 0 32 32" fill="none" xmlns="http://www.w3.org/2000/svg">
<path d="M23.2015 0H3.4668V32H28.5342V5.33267L23.2015 0Z" fill="#E4E4E4"/>
<path d="M24.0268 2.66639H3.4668V0H23.2015L24.0268 2.66639Z" fill="#FB9200"/>
<path d="M21.1488 9.27759H19.627V15.8833H21.1488V9.27759Z" fill="#A4A9AD"/>
<path d="M21.489 14.0928L19.2871 14.491V15.1655L21.489 14.7673V14.0928Z" fill="#D1D3D3"/>
<path d="M21.489 12.7271L19.2871 13.1253V13.7998L21.489 13.4017V12.7271Z" fill="#D1D3D3"/>
<path d="M21.489 11.3613L19.2871 11.7594V12.434L21.489 12.0359V11.3613Z" fill="#D1D3D3"/>
<path d="M21.489 9.99536L19.2871 10.3935V11.0679L21.489 10.6699V9.99536Z" fill="#D1D3D3"/>
<path d="M20.8925 16.3596H19.8809V18.264H20.8925V16.3596Z" fill="#A4A9AD"/>
<path d="M19.286 15.6155L17.2329 16.3891H11.0156L11.7596 17.639H17.2329L19.286 16.8653H21.4879V15.6155H19.286Z" fill="#A4A9AD"/>
<path d="M19.286 9.54541L17.2329 8.77187H11.0156L11.7596 7.52222H17.2329L19.286 8.29586H21.4879V9.54541H19.286Z" fill="#A4A9AD"/>
<path d="M16.9661 8.77197H9.4668V16.3893H16.9661V8.77197Z" fill="#FB9200"/>
<path d="M15.8605 9.72974H10.5742V12.139H15.8605V9.72974Z" fill="#FF671B"/>
<path d="M14.0702 10.4299H12.3652V10.8472H14.0702V10.4299Z" fill="white"/>
<path d="M15.8605 13.0222H10.5742V15.4315H15.8605V13.0222Z" fill="#FF671B"/>
<path d="M14.0702 13.7224H12.3652V14.1397H14.0702V13.7224Z" fill="white"/>
<path d="M21.489 17.6389H19.2871V18.8886H21.489V17.6389Z" fill="#A4A9AD"/>
<path d="M12.77 28.9057L14.5089 24.9813H12.3164V23.8486H15.9707V24.6556L14.1869 28.9057H12.77Z" fill="#A4A9AD"/>
<path d="M19.6219 28.9058H16.373V28.1334L17.9975 26.0172H16.4666V24.9814H19.5458V25.8196L17.9906 27.8701H19.622V28.9058H19.6219Z" fill="#A4A9AD"/>
<path d="M23.2012 5.33267H28.5338L23.2012 0V5.33267Z" fill="#D1D3D3"/>
</svg>
