<svg width="32" height="32" viewBox="0 0 32 32" fill="none" xmlns="http://www.w3.org/2000/svg">
<path d="M23.2015 0H3.4668V32H28.5342V5.33267L23.2015 0Z" fill="#E8E8E8"/>
<path d="M22.2495 6.51245H9.5957V19.1663H22.2495V6.51245Z" fill="#007934"/>
<path d="M21.1516 7.61011H10.6934V18.0684H21.1516V7.61011Z" fill="white"/>
<path d="M20.331 14.5042H17.1035L18.0568 15.6947L17.1035 16.8851H20.331L19.3777 15.6947L20.331 14.5042Z" fill="#007934"/>
<path d="M19.4084 10.3313H16.3196L15.6349 11.1863L14.9502 10.3313H11.8613L14.0904 13.1152L11.8613 15.899H19.4084L17.1793 13.1152L19.4084 10.3313Z" fill="#007934"/>
<path d="M13.1853 10.7249H12.7383L16.5662 15.5052H17.0131L13.1853 10.7249Z" fill="white"/>
<path d="M24.0268 2.66639H3.4668V0H23.2015L24.0268 2.66639Z" fill="#007934"/>
<path d="M14.355 28.9057H12.772L11.7848 27.3229L10.8081 28.9057H9.25977L10.9397 26.3149L9.36024 23.8418H10.8773L11.7918 25.4075L12.6716 23.8418H14.2338L12.6301 26.4223L14.355 28.9057Z" fill="#A4A9AD"/>
<path d="M14.9238 28.9057V23.8418H16.292V27.8009H18.2422V28.9059H14.9238V28.9057Z" fill="#A4A9AD"/>
<path d="M22.3634 27.3678C22.3634 27.6819 22.2837 27.9607 22.1243 28.2043C21.965 28.448 21.7351 28.6372 21.4351 28.7723C21.1348 28.9074 20.7827 28.9749 20.3786 28.9749C20.0415 28.9749 19.7586 28.9512 19.53 28.9039C19.3014 28.8566 19.0635 28.7741 18.8164 28.6563V27.437C19.0774 27.571 19.3487 27.6755 19.6305 27.7505C19.9122 27.8256 20.1708 27.8631 20.4063 27.8631C20.6095 27.8631 20.7584 27.828 20.8531 27.7575C20.9478 27.6871 20.9952 27.5964 20.9952 27.4856C20.9952 27.4164 20.9761 27.3557 20.9381 27.3037C20.9 27.2518 20.8388 27.1993 20.7545 27.1462C20.6701 27.0931 20.4456 26.9846 20.0807 26.8206C19.7505 26.6705 19.5029 26.525 19.3378 26.3841C19.1727 26.2433 19.0503 26.0816 18.9706 25.8992C18.8909 25.7168 18.8511 25.5008 18.8511 25.2514C18.8511 24.785 19.0207 24.4213 19.3602 24.1604C19.6997 23.8995 20.1661 23.769 20.7596 23.769C21.2837 23.769 21.8183 23.8902 22.3632 24.1328L21.9441 25.1892C21.4708 24.9722 21.0621 24.8635 20.718 24.8635C20.5401 24.8635 20.4109 24.8947 20.33 24.9571C20.2491 25.0194 20.2089 25.0968 20.2089 25.1892C20.2089 25.2885 20.2602 25.3774 20.363 25.4559C20.4658 25.5344 20.7445 25.6776 21.1995 25.8854C21.6359 26.0816 21.9391 26.2924 22.1087 26.5175C22.2785 26.7426 22.3634 27.0262 22.3634 27.3678Z" fill="#A4A9AD"/>
<path d="M23.2012 5.33267H28.5338L23.2012 0V5.33267Z" fill="#D1D3D3"/>
</svg>
