<svg width="33" height="33" viewBox="0 0 33 33" fill="none" xmlns="http://www.w3.org/2000/svg">
<path d="M23.9256 0H3.57422V33H29.425V5.49931L23.9256 0Z" fill="#E4E4E4"/>
<path d="M24.7767 2.74971H3.57422V0H23.9256L24.7767 2.74971Z" fill="#FB9200"/>
<path d="M21.8077 9.56763H20.2383V16.3798H21.8077V9.56763Z" fill="#A4A9AD"/>
<path d="M22.1594 14.5334L19.8887 14.9441V15.6397L22.1594 15.2291V14.5334Z" fill="#D1D3D3"/>
<path d="M22.1594 13.1248L19.8887 13.5354V14.231L22.1594 13.8205V13.1248Z" fill="#D1D3D3"/>
<path d="M22.1594 11.7163L19.8887 12.1269V12.8225L22.1594 12.4119V11.7163Z" fill="#D1D3D3"/>
<path d="M22.1594 10.3079L19.8887 10.7184V11.414L22.1594 11.0034V10.3079Z" fill="#D1D3D3"/>
<path d="M21.5452 16.8708H20.502V18.8346H21.5452V16.8708Z" fill="#A4A9AD"/>
<path d="M19.8882 16.1038L17.7709 16.9016H11.3594L12.1265 18.1904H17.7709L19.8882 17.3925H22.1589V16.1038H19.8882Z" fill="#A4A9AD"/>
<path d="M19.8882 9.84385L17.7709 9.04603H11.3594L12.1265 7.75732H17.7709L19.8882 8.55504H22.1589V9.84385H19.8882Z" fill="#A4A9AD"/>
<path d="M17.4953 9.04614H9.76172V16.9015H17.4953V9.04614Z" fill="#FB9200"/>
<path d="M16.3539 10.0339H10.9023V12.5186H16.3539V10.0339Z" fill="#FF671B"/>
<path d="M14.5063 10.7559H12.748V11.1861H14.5063V10.7559Z" fill="white"/>
<path d="M16.3539 13.4292H10.9023V15.9138H16.3539V13.4292Z" fill="#FF671B"/>
<path d="M14.5063 14.1511H12.748V14.5815H14.5063V14.1511Z" fill="white"/>
<path d="M22.1594 18.1902H19.8887V19.4789H22.1594V18.1902Z" fill="#A4A9AD"/>
<path d="M10.7879 27.9088V29.8091H9.37695V24.5869H11.088C12.5073 24.5869 13.2168 25.1013 13.2168 26.13C13.2168 26.7349 12.9215 27.2029 12.331 27.5338L13.8526 29.8092H12.2524L11.145 27.9089L10.7879 27.9088ZM10.7879 26.848H11.0523C11.5452 26.848 11.7916 26.6301 11.7916 26.1943C11.7916 25.8348 11.5499 25.6549 11.0665 25.6549H10.7879V26.848Z" fill="#A4A9AD"/>
<path d="M17.532 29.8091L17.2751 28.8303H15.5782L15.3139 29.8091H13.7637L15.4676 24.5654H17.3501L19.0752 29.8091H17.532ZM16.9822 27.673L16.7571 26.8158C16.7048 26.6252 16.6411 26.3788 16.566 26.0763C16.4911 25.7739 16.4415 25.5572 16.4178 25.4262C16.3964 25.5476 16.354 25.7477 16.2911 26.0262C16.228 26.3049 16.0879 26.8538 15.8713 27.6729H16.9822V27.673Z" fill="#A4A9AD"/>
<path d="M21.0496 27.9088V29.8091H19.6387V24.5869H21.3497C22.7689 24.5869 23.4786 25.1013 23.4786 26.13C23.4786 26.7349 23.1833 27.2029 22.5927 27.5338L24.1143 29.8092H22.5141L21.4067 27.9089L21.0496 27.9088ZM21.0496 26.848H21.3139C21.8068 26.848 22.0534 26.6301 22.0534 26.1943C22.0534 25.8348 21.8116 25.6549 21.3282 25.6549H21.0496V26.848Z" fill="#A4A9AD"/>
<path d="M23.9258 5.49931H29.4251L23.9258 0V5.49931Z" fill="#D1D3D3"/>
</svg>
