<svg width="34" height="22" viewBox="0 0 34 22" fill="none" xmlns="http://www.w3.org/2000/svg">
<path d="M11.1309 20.0786C11.8824 20.0786 12.6031 19.7801 13.1344 19.2487C13.6658 18.7173 13.9643 17.9967 13.9643 17.2452C13.9643 16.4938 13.6658 15.7731 13.1344 15.2418C12.6031 14.7104 11.8824 14.4119 11.1309 14.4119C10.3795 14.4119 9.65882 14.7104 9.12747 15.2418C8.59612 15.7731 8.29761 16.4938 8.29761 17.2452C8.29761 17.9967 8.59612 18.7173 9.12747 19.2487C9.65882 19.7801 10.3795 20.0786 11.1309 20.0786ZM25.2976 20.0786C26.0491 20.0786 26.7697 19.7801 27.3011 19.2487C27.8324 18.7173 28.1309 17.9967 28.1309 17.2452C28.1309 16.4938 27.8324 15.7731 27.3011 15.2418C26.7697 14.7104 26.0491 14.4119 25.2976 14.4119C24.5462 14.4119 23.8255 14.7104 23.2941 15.2418C22.7628 15.7731 22.4643 16.4938 22.4643 17.2452C22.4643 17.9967 22.7628 18.7173 23.2941 19.2487C23.8255 19.7801 24.5462 20.0786 25.2976 20.0786Z" stroke="#E85628" stroke-miterlimit="1.5" stroke-linecap="round" stroke-linejoin="round"/>
<path d="M13.9541 17.0833H20.9666V2.35C20.9666 2.12457 20.8771 1.90837 20.7177 1.74896C20.5583 1.58955 20.3421 1.5 20.1166 1.5H1.1333M7.7208 17.0833H4.81663C4.70501 17.0833 4.59448 17.0613 4.49135 17.0186C4.38823 16.9759 4.29452 16.9133 4.21559 16.8344C4.13666 16.7554 4.07405 16.6617 4.03134 16.5586C3.98862 16.4555 3.96663 16.345 3.96663 16.2333V9.29167" stroke="#E85628" stroke-linecap="round"/>
<path d="M2.6311 5.9119H8.29777" stroke="#E85628" stroke-linecap="round" stroke-linejoin="round"/>
<path d="M21.0476 5.9119H28.9951C29.1594 5.91194 29.3202 5.95959 29.458 6.0491C29.5957 6.13861 29.7046 6.26613 29.7714 6.41623L32.3073 12.1226C32.3556 12.2309 32.3807 12.3482 32.3809 12.4668V16.3952C32.3809 16.5069 32.359 16.6174 32.3162 16.7205C32.2735 16.8236 32.2109 16.9173 32.132 16.9963C32.0531 17.0752 31.9593 17.1378 31.8562 17.1805C31.7531 17.2232 31.6426 17.2452 31.5309 17.2452H28.8393M21.0476 17.2452H22.4643" stroke="#E85628" stroke-linecap="round"/>
</svg>
