<svg width="56" height="56" viewBox="0 0 56 56" fill="none" xmlns="http://www.w3.org/2000/svg">
<path d="M48.1136 19.7166C45.6636 8.93658 36.2602 4.08325 28.0002 4.08325C28.0002 4.08325 28.0002 4.08325 27.9769 4.08325C19.7402 4.08325 10.3136 8.91325 7.86356 19.6933C5.13356 31.7332 12.5069 41.9299 19.1802 48.3466C21.6536 50.7266 24.8269 51.9166 28.0002 51.9166C31.1736 51.9166 34.3469 50.7266 36.7969 48.3466C43.4702 41.9299 50.8436 31.7566 48.1136 19.7166ZM28.0002 31.4066C23.9402 31.4066 20.6502 28.1166 20.6502 24.0566C20.6502 19.9966 23.9402 16.7066 28.0002 16.7066C32.0602 16.7066 35.3502 19.9966 35.3502 24.0566C35.3502 28.1166 32.0602 31.4066 28.0002 31.4066Z" fill="#F1592A"/>
</svg>
