<svg width="30" height="30" viewBox="0 0 30 30" fill="none" xmlns="http://www.w3.org/2000/svg">
<path d="M15 4C17.9174 4 20.7153 5.15893 22.7782 7.22183C24.8411 9.28473 26 12.0826 26 15C26 17.9174 24.8411 20.7153 22.7782 22.7782C20.7153 24.8411 17.9174 26 15 26C12.0826 26 9.28473 24.8411 7.22183 22.7782C5.15893 20.7153 4 17.9174 4 15C4 12.0826 5.15893 9.28473 7.22183 7.22183C9.28473 5.15893 12.0826 4 15 4ZM15 5.15789C12.3897 5.15789 9.88633 6.19483 8.04058 8.04058C6.19483 9.88633 5.15789 12.3897 5.15789 15C5.15789 17.6103 6.19483 20.1137 8.04058 21.9594C9.88633 23.8052 12.3897 24.8421 15 24.8421C16.2925 24.8421 17.5723 24.5875 18.7664 24.0929C19.9605 23.5983 21.0455 22.8733 21.9594 21.9594C22.8733 21.0455 23.5983 19.9605 24.0929 18.7664C24.5875 17.5723 24.8421 16.2925 24.8421 15C24.8421 12.3897 23.8052 9.88633 21.9594 8.04058C20.1137 6.19483 17.6103 5.15789 15 5.15789ZM14.4211 9.78947V12.1053H15.5789V9.78947H14.4211ZM14.4211 14.4211V20.2105H15.5789V14.4211H14.4211Z" fill="#E85628"/>
</svg>
