<svg width="40" height="40" viewBox="0 0 40 40" fill="none" xmlns="http://www.w3.org/2000/svg">
<rect width="40" height="40" rx="20" fill="#F79A38"/>
<path d="M13.2081 18.2709C15.2083 22.6257 18.7617 26.0772 23.1727 27.95L23.8811 28.2657C24.6655 28.615 25.548 28.6762 26.3731 28.4386C27.1982 28.2009 27.913 27.6797 28.3915 26.9667L29.3175 25.5875C29.4624 25.3713 29.5211 25.1085 29.482 24.8512C29.4428 24.5938 29.3087 24.3604 29.1061 24.1969L25.9686 21.6657C25.8593 21.5776 25.7334 21.5125 25.5983 21.4743C25.4632 21.4361 25.3219 21.4256 25.1826 21.4434C25.0434 21.4612 24.9092 21.5069 24.7881 21.5779C24.667 21.6488 24.5615 21.7435 24.4779 21.8563L23.5071 23.1657C21.015 21.9349 18.9979 19.9173 17.7675 17.425L19.0759 16.4542C19.1886 16.3706 19.2833 16.2651 19.3543 16.144C19.4252 16.0229 19.471 15.8887 19.4888 15.7495C19.5066 15.6103 19.4961 15.4689 19.4579 15.3339C19.4197 15.1988 19.3546 15.0729 19.2665 14.9636L16.7352 11.8261C16.5718 11.6234 16.3384 11.4893 16.081 11.4502C15.8236 11.4111 15.5609 11.4697 15.3446 11.6146L13.9561 12.5459C13.2388 13.0269 12.7155 13.7469 12.4796 14.5777C12.2436 15.4085 12.3102 16.2961 12.6675 17.0823L13.2081 18.2709Z" fill="white"/>
</svg>
