<svg width="222" height="60" viewBox="0 0 222 60" fill="none" xmlns="http://www.w3.org/2000/svg">
<g clip-path="url(#clip0_133_36)">
<mask id="mask0_133_36" style="mask-type:luminance" maskUnits="userSpaceOnUse" x="0" y="0" width="37" height="60">
<path d="M37 0H0V60H37V0Z" fill="white"/>
</mask>
<g mask="url(#mask0_133_36)">
<path d="M2.84668 33.333C8.42318 28.8173 12.6924 25.484 15.6544 23.333C18.6164 21.1821 21.7787 19.1186 25.1416 17.1426C26.5418 17.8908 27.6485 18.367 28.4621 18.5711C29.2756 18.7753 30.6985 18.934 32.7314 19.0473L15.18 31.9045C12.3862 32.0693 10.3307 32.228 9.01335 32.3806C7.69604 32.5333 5.6405 32.8506 2.84668 33.333Z" fill="black"/>
<path d="M28.7542 0.18321C27.8056 0.166589 22.0228 2.12545 14.6633 5.65147C11.9005 6.97516 7.18977 9.59144 0.531137 13.5003C0.132864 18.2616 0.0721539 21.7531 0.349007 23.9748C0.625859 26.1967 1.51924 29.3873 3.02915 33.5472C9.37222 28.137 14.3422 24.2552 17.939 21.9018C21.5359 19.5484 26.9636 16.6272 34.2221 13.1381C34.3694 11.0941 34.5551 9.50984 34.7791 8.38525C35.003 7.26067 35.5106 5.36451 36.3012 2.69677C34.7805 2.00559 33.6821 1.51008 33.0062 1.21024C31.3599 0.479866 29.7027 0.199832 28.7542 0.18321Z" fill="#F1592A"/>
<path d="M32.7314 19.0474C25.3125 23.1396 20.0945 26.473 17.0775 29.0473C14.0605 31.6217 9.79121 36.3836 4.26977 43.333H7.11592L2.84668 49.5236L8.06463 46.1902L6.64156 49.5236L11.8595 46.6665L8.53899 52.3806L11.8595 51.9045L7.59029 58.5712L14.7057 54.2853V59.9996C18.8125 52.6162 22.133 47.2194 24.6673 43.8093C27.2015 40.3993 31.3125 35.7961 37.0005 29.9996L32.7314 19.0474Z" fill="#F1592A"/>
</g>
<path d="M52.4014 26.0193C52.4014 23.7809 53.2454 22.0732 54.9336 20.8962C56.6217 19.7193 58.7376 19.1309 61.2814 19.1309C64.3339 19.1309 66.9586 19.7539 69.1554 21.0001V25.8462C67.0973 24.3693 64.5998 23.6539 61.6629 23.7001C59.0267 23.7462 57.7086 24.4962 57.7086 25.9501C57.7086 26.5962 58.0323 27.1616 58.6798 27.6462C59.3504 28.1309 60.1714 28.5232 61.1426 28.8232C62.137 29.1001 63.2007 29.4693 64.3339 29.9309C65.4901 30.3693 66.5539 30.8539 67.5251 31.3847C68.5195 31.8924 69.3404 32.6539 69.9879 33.6693C70.6586 34.6847 70.9939 35.8616 70.9939 37.2001C70.9939 38.5155 70.7395 39.6462 70.2307 40.5924C69.7451 41.5386 69.0514 42.277 68.1495 42.8078C67.2476 43.3386 66.2532 43.7193 65.1664 43.9501C64.0795 44.2039 62.8654 44.3309 61.5242 44.3309C58.1479 44.3309 55.1532 43.6039 52.5401 42.1501V37.2001C55.1301 38.9078 57.9976 39.7616 61.1426 39.7616C64.172 39.7616 65.6867 38.9886 65.6867 37.4424C65.6867 36.7501 65.3514 36.1501 64.6807 35.6424C64.0332 35.1116 63.2123 34.6962 62.2179 34.3962C61.2467 34.0732 60.1829 33.6924 59.0267 33.2539C57.8936 32.7924 56.8298 32.3078 55.8354 31.8001C54.8642 31.2693 54.0432 30.5078 53.3726 29.5155C52.7251 28.5232 52.4014 27.3578 52.4014 26.0193ZM97.3372 19.6155H102.159V43.8462H96.9556V28.927L90.5384 38.6539H87.5206L81.1034 28.8924V43.8462H75.9003V19.6155H80.7219L89.0469 32.2155L97.3372 19.6155ZM108.757 19.6155H125.858V24.1847H113.96V29.3424H124.818V33.877H113.96V39.277H126.066V43.8462H108.757V19.6155ZM130.512 26.0193C130.512 23.7809 131.356 22.0732 133.044 20.8962C134.732 19.7193 136.848 19.1309 139.392 19.1309C142.444 19.1309 145.069 19.7539 147.266 21.0001V25.8462C145.208 24.3693 142.71 23.6539 139.773 23.7001C137.137 23.7462 135.819 24.4962 135.819 25.9501C135.819 26.5962 136.143 27.1616 136.79 27.6462C137.461 28.1309 138.282 28.5232 139.253 28.8232C140.247 29.1001 141.311 29.4693 142.444 29.9309C143.601 30.3693 144.664 30.8539 145.636 31.3847C146.63 31.8924 147.451 32.6539 148.098 33.6693C148.769 34.6847 149.104 35.8616 149.104 37.2001C149.104 38.5155 148.85 39.6462 148.341 40.5924C147.856 41.5386 147.162 42.277 146.26 42.8078C145.358 43.3386 144.364 43.7193 143.277 43.9501C142.19 44.2039 140.976 44.3309 139.635 44.3309C136.258 44.3309 133.264 43.6039 130.651 42.1501V37.2001C133.241 38.9078 136.108 39.7616 139.253 39.7616C142.282 39.7616 143.797 38.9886 143.797 37.4424C143.797 36.7501 143.462 36.1501 142.791 35.6424C142.144 35.1116 141.323 34.6962 140.328 34.3962C139.357 34.0732 138.293 33.6924 137.137 33.2539C136.004 32.7924 134.94 32.3078 133.946 31.8001C132.975 31.2693 132.154 30.5078 131.483 29.5155C130.836 28.5232 130.512 27.3578 130.512 26.0193ZM154.011 19.6155H159.214V43.8462H154.011V19.6155Z" fill="black"/>
<path d="M169.614 39.3462C170.169 39.8309 170.446 40.5347 170.446 41.4578C170.446 42.3809 170.169 43.0847 169.614 43.5693C169.059 44.0539 168.365 44.2962 167.532 44.2962C166.7 44.2962 165.995 44.0539 165.416 43.5693C164.861 43.0847 164.584 42.3809 164.584 41.4578C164.584 40.5347 164.861 39.8309 165.416 39.3462C165.995 38.8616 166.7 38.6193 167.532 38.6193C168.365 38.6193 169.059 38.8616 169.614 39.3462ZM175.823 19.6155H186.438C189.097 19.6155 191.155 20.1347 192.612 21.1732C194.092 22.1886 194.832 23.7116 194.832 25.7424C194.832 28.4424 193.607 30.2078 191.155 31.0386C192.497 31.4309 193.607 32.1232 194.485 33.1155C195.364 34.0847 195.803 35.4001 195.803 37.0616C195.803 38.377 195.514 39.5078 194.936 40.4539C194.358 41.377 193.572 42.0693 192.577 42.5309C191.606 42.9924 190.6 43.327 189.56 43.5347C188.542 43.7424 187.444 43.8462 186.264 43.8462H175.823V19.6155ZM190.6 36.5078C190.6 34.4309 189.224 33.3924 186.472 33.3924H180.992V39.6232H186.195C187.559 39.6232 188.635 39.4039 189.421 38.9655C190.207 38.527 190.6 37.7078 190.6 36.5078ZM189.664 26.6424C189.664 24.7962 188.438 23.8732 185.987 23.8732H181.027V29.4116H186.264C187.282 29.4116 188.103 29.1809 188.727 28.7193C189.352 28.2347 189.664 27.5424 189.664 26.6424ZM211.811 43.8462H206.643V35.2616L197.138 19.6155H203.001L209.21 30.4847L215.419 19.6155H221.281L211.811 35.2616V43.8462Z" fill="#F1592A"/>
</g>
<defs>
<clipPath id="clip0_133_36">
<rect width="222" height="60" fill="white"/>
</clipPath>
</defs>
</svg>
