<svg width="50px" height="50px" viewBox="0 0 50 50" version="1.1" xmlns="http://www.w3.org/2000/svg" xmlns:xlink="http://www.w3.org/1999/xlink">
    <!-- Generator: Sketch 46.2 (44496) - http://www.bohemiancoding.com/sketch -->
    <desc>Created with Sketch.</desc>
    <defs></defs>
    <g id="Page-1" stroke="none" stroke-width="1" fill="none" fill-rule="evenodd">
        <g id="001-packages" fill-rule="nonzero" fill="#E85628">
            <path d="M48.7248047,34.4744141 L41.9130859,34.4744141 L41.9130859,23.2689453 C41.9130859,22.8643555 41.5852539,22.5365234 41.1806641,22.5365234 C40.7760742,22.5365234 40.4482422,22.8643555 40.4482422,23.2689453 L40.4482422,34.4744141 C38.9482422,34.4744141 29.3249023,34.4744141 27.7213867,34.4744141 L27.7213867,31.3005859 C27.7213867,30.8959961 27.3935547,30.5681641 26.9889648,30.5681641 L19.634375,30.5681641 C19.634375,29.6675781 19.634375,14.6025391 19.634375,13.1083008 L27.9526367,13.1083008 L27.9526367,16.1213867 C27.9526367,16.7663086 28.4772461,17.290918 29.122168,17.290918 L30.9604492,17.290918 C31.6053711,17.290918 32.1300781,16.7663086 32.1300781,16.1213867 L32.1300781,13.1083008 L40.4483398,13.1083008 L40.4483398,20.340625 C40.4483398,20.7452148 40.7761719,21.0730469 41.1807617,21.0730469 C41.5853516,21.0730469 41.9131836,20.7452148 41.9131836,20.340625 L41.9131836,12.91875 C41.9131836,12.215625 41.3411133,11.643457 40.6378906,11.643457 C37.0427734,11.643457 28.5681641,11.643457 25.2223633,11.643457 L25.2223633,1.29404297 C25.2223633,0.590917969 24.650293,0.01875 23.9470703,0.01875 L10.4949219,0.01875 C9.79169922,0.01875 9.21962891,0.590820312 9.21962891,1.29404297 L9.21962891,5.92451172 C9.21962891,6.32910156 9.54755859,6.65693359 9.95205078,6.65693359 C10.356543,6.65693359 10.6844727,6.32910156 10.6844727,5.92451172 L10.6844727,1.48359375 L15.1322266,1.48359375 L15.1322266,4.49667969 C15.1322266,5.14160156 15.6568359,5.66621094 16.3017578,5.66621094 L18.1401367,5.66621094 C18.7850586,5.66621094 19.309668,5.14160156 19.309668,4.49667969 L19.309668,1.48359375 L23.7574219,1.48359375 L23.7574219,11.643457 L18.9020508,11.643457 C18.4975586,11.643457 18.1696289,11.9712891 18.1696289,12.3758789 L18.1696289,18.4793945 L10.6845703,18.4793945 L10.6845703,8.85283203 C10.6845703,8.44824219 10.3566406,8.12041016 9.95214844,8.12041016 C9.54765625,8.12041016 9.21972656,8.44824219 9.21972656,8.85283203 L9.21972656,18.4794922 L4.90703125,18.4794922 C4.20380859,18.4794922 3.63173828,19.0514648 3.63173828,19.7546875 L3.63173828,30.5681641 L1.27519531,30.5681641 C0.572070312,30.5681641 -5.68434189e-14,31.1402344 -5.68434189e-14,31.843457 L-5.68434189e-14,49.2487305 C-5.68434189e-14,49.6533203 0.327929687,49.9811523 0.732421875,49.9811523 L8.48789062,49.9811523 C8.89238281,49.9811523 9.2203125,49.6533203 9.2203125,49.2487305 C9.2203125,48.8441406 8.89238281,48.5163086 8.48789062,48.5163086 L1.46484375,48.5163086 L1.46484375,32.0330078 L11.7719727,32.0330078 L11.7719727,35.0459961 C11.7719727,35.690918 12.2966797,36.215625 12.9415039,36.215625 L14.7797852,36.215625 C15.424707,36.215625 15.9493164,35.690918 15.9493164,35.0459961 L15.9493164,32.0330078 L26.2564453,32.0330078 L26.2564453,48.5163086 L11.4162109,48.5163086 C11.0117187,48.5163086 10.6837891,48.8441406 10.6837891,49.2487305 C10.6837891,49.6533203 11.0117187,49.9811523 11.4162109,49.9811523 L49.2674805,49.9811523 C49.6720703,49.9811523 49.9999023,49.6533203 49.9999023,49.2487305 L49.9999023,35.749707 C50,35.046582 49.4279297,34.4744141 48.7248047,34.4744141 Z M17.8447266,4.20126953 L16.5970703,4.20126953 L16.5970703,1.48369141 L17.8447266,1.48369141 L17.8447266,4.20126953 Z M30.6651367,13.1083008 L30.6651367,15.8259766 L29.4174805,15.8259766 L29.4174805,13.1083008 L30.6651367,13.1083008 Z M11.0091797,19.9443359 L12.2569336,19.9443359 L12.2569336,22.6619141 L11.0091797,22.6619141 L11.0091797,19.9443359 Z M5.09658203,19.9443359 L9.54433594,19.9443359 L9.54433594,22.9573242 C9.54433594,23.6022461 10.069043,24.1268555 10.7138672,24.1268555 L12.5522461,24.1268555 C13.197168,24.1268555 13.7217773,23.6022461 13.7217773,22.9573242 L13.7217773,19.9443359 L18.1695312,19.9443359 L18.1695312,30.5681641 C15.3383789,30.5681641 7.46289062,30.5681641 5.09658203,30.5681641 L5.09658203,19.9443359 Z M14.4844727,34.7506836 L13.2368164,34.7506836 L13.2368164,32.0330078 L14.4844727,32.0330078 L14.4844727,34.7506836 Z M38.7521484,35.9392578 L38.7521484,38.6569336 L37.5043945,38.6569336 L37.5043945,35.9392578 L38.7521484,35.9392578 Z M48.5351562,48.5163086 L27.7213867,48.5163086 L27.7213867,35.9392578 L36.0395508,35.9392578 L36.0395508,38.9522461 C36.0395508,39.597168 36.5642578,40.121875 37.2091797,40.121875 L39.0474609,40.121875 C39.6923828,40.121875 40.2170898,39.597168 40.2170898,38.9522461 L40.2170898,35.9392578 L48.5352539,35.9392578 L48.5352539,48.5163086 L48.5351562,48.5163086 Z" id="Shape"></path>
        </g>
    </g>
</svg>
