<svg width="70px" height="50px" viewBox="0 0 70 50" version="1.1" xmlns="http://www.w3.org/2000/svg" xmlns:xlink="http://www.w3.org/1999/xlink">
    <!-- Generator: Sketch 46.2 (44496) - http://www.bohemiancoding.com/sketch -->
    <desc>Created with Sketch.</desc>
    <defs></defs>
    <g id="Page-1" stroke="none" stroke-width="1" fill="none" fill-rule="evenodd">
        <g id="001-truck" fill-rule="nonzero" fill="#E85628">
            <path d="M16.2319293,36.014538 C12.3953804,36.014538 9.27540761,39.1345109 9.27540761,42.9710598 C9.27540761,46.8076087 12.3953804,49.9275815 16.2319293,49.9275815 C20.0684783,49.9275815 23.1884511,46.8076087 23.1884511,42.9710598 C23.1884511,39.1345109 20.0683424,36.014538 16.2319293,36.014538 Z M16.2319293,47.6086957 C13.6741848,47.6086957 11.5942935,45.5286685 11.5942935,42.9710598 C11.5942935,40.4133152 13.6743207,38.3334239 16.2319293,38.3334239 C18.789538,38.3334239 20.8695652,40.4134511 20.8695652,42.9710598 C20.8695652,45.5286685 18.789538,47.6086957 16.2319293,47.6086957 Z" id="Shape"></path>
            <path d="M55.6521739,36.014538 C51.815625,36.014538 48.6956522,39.1345109 48.6956522,42.9710598 C48.6956522,46.8076087 51.815625,49.9275815 55.6521739,49.9275815 C59.4887228,49.9275815 62.6086957,46.8076087 62.6086957,42.9710598 C62.6086957,39.1345109 59.4887228,36.014538 55.6521739,36.014538 Z M55.6521739,47.6086957 C53.0944293,47.6086957 51.014538,45.5286685 51.014538,42.9710598 C51.014538,40.4133152 53.0945652,38.3334239 55.6521739,38.3334239 C58.2099185,38.3334239 60.2898098,40.4134511 60.2898098,42.9710598 C60.2898098,45.5286685 58.2099185,47.6086957 55.6521739,47.6086957 Z" id="Shape"></path>
            <path d="M69.3808424,29.5902174 L58.9460598,13.358288 C58.7327446,13.0266304 58.3652174,12.826087 57.9709239,12.826087 L45.2173913,12.826087 C44.5762228,12.826087 44.0580163,13.3455163 44.0580163,13.985462 L44.0580163,42.9709239 C44.0580163,43.6120924 44.5762228,44.1302989 45.2173913,44.1302989 L49.8550272,44.1302989 L49.8550272,41.811413 L46.3767663,41.811413 L46.3767663,15.1449728 L57.3379076,15.1449728 L67.2463315,30.558288 L67.2463315,41.8116848 L61.4491848,41.8116848 L61.4491848,44.1304348 L68.4057065,44.1304348 C69.046875,44.1304348 69.5650815,43.6122283 69.5650815,42.9710598 L69.5650815,30.2173913 C69.5652174,29.9959239 69.5014946,29.7767663 69.3808424,29.5902174 Z" id="Shape"></path>
            <path d="M51.014538,27.8985054 L51.014538,19.7826087 L60.2899457,19.7826087 L60.2899457,17.4637228 L49.855163,17.4637228 C49.2139946,17.4637228 48.695788,17.9831522 48.695788,18.6230978 L48.695788,29.0578804 C48.695788,29.6990489 49.2139946,30.2172554 49.855163,30.2172554 L67.2464674,30.2172554 L67.2464674,27.8983696 L51.014538,27.8983696 L51.014538,27.8985054 Z" id="Shape"></path>
            <path d="M45.2173913,4.71019022 L1.159375,4.71019022 C0.519429348,4.71019022 0,5.22961957 0,5.86956522 L0,42.9710598 C0,43.6122283 0.519429348,44.1304348 1.159375,44.1304348 L10.4347826,44.1304348 L10.4347826,41.8115489 L2.31888587,41.8115489 L2.31888587,7.02894022 L44.0580163,7.02894022 L44.0580163,41.8115489 L22.0289402,41.8115489 L22.0289402,44.1304348 L45.2173913,44.1304348 C45.8585598,44.1304348 46.3767663,43.6122283 46.3767663,42.9710598 L46.3767663,5.86956522 C46.3767663,5.22961957 45.8585598,4.71019022 45.2173913,4.71019022 Z" id="Shape"></path>
            <rect id="Rectangle-path" x="1.159375" y="37.173913" width="6.95652174" height="2.31888587"></rect>
            <rect id="Rectangle-path" x="24.3478261" y="37.173913" width="19.7101902" height="2.31888587"></rect>
            <rect id="Rectangle-path" x="63.7680707" y="37.173913" width="4.63763587" height="2.31888587"></rect>
            <rect id="Rectangle-path" x="4.63763587" y="9.34782609" width="40.5797554" height="2.31888587"></rect>
            <rect id="Rectangle-path" x="15.0724185" y="41.8115489" width="2.31888587" height="2.31888587"></rect>
            <rect id="Rectangle-path" x="54.4927989" y="41.8115489" width="2.31888587" height="2.31888587"></rect>
            <rect id="Rectangle-path" x="4.63763587" y="0.0724184783" width="16.2319293" height="2.31888587"></rect>
            <rect id="Rectangle-path" x="0" y="0.0724184783" width="2.31888587" height="2.31888587"></rect>
        </g>
    </g>
</svg>
